<mxfile host="Electron" agent="Mozilla/5.0 (X11; Linux x86_64) AppleWebKit/537.36 (KHTML, like Gecko) draw.io/26.1.1 Chrome/132.0.6834.210 Electron/34.3.3 Safari/537.36" version="26.1.1">
  <diagram name="Strona-1" id="wLzI2IgxOTotbQlTv0Wu">
    <mxGraphModel dx="424" dy="336" grid="1" gridSize="10" guides="1" tooltips="1" connect="1" arrows="1" fold="1" page="1" pageScale="1" pageWidth="827" pageHeight="1169" math="0" shadow="0">
      <root>
        <mxCell id="0" />
        <mxCell id="1" parent="0" />
        <mxCell id="uafcJiYdT8t69meHnPjJ-18" style="edgeStyle=orthogonalEdgeStyle;rounded=0;orthogonalLoop=1;jettySize=auto;html=1;" edge="1" parent="1" source="uafcJiYdT8t69meHnPjJ-2" target="uafcJiYdT8t69meHnPjJ-7">
          <mxGeometry relative="1" as="geometry">
            <Array as="points">
              <mxPoint x="660" y="280" />
              <mxPoint x="660" y="450" />
            </Array>
          </mxGeometry>
        </mxCell>
        <mxCell id="uafcJiYdT8t69meHnPjJ-2" value="" style="rhombus;whiteSpace=wrap;html=1;" vertex="1" parent="1">
          <mxGeometry x="295" y="115" width="330" height="330" as="geometry" />
        </mxCell>
        <mxCell id="uafcJiYdT8t69meHnPjJ-20" style="edgeStyle=orthogonalEdgeStyle;rounded=0;orthogonalLoop=1;jettySize=auto;html=1;" edge="1" parent="1" source="uafcJiYdT8t69meHnPjJ-3" target="uafcJiYdT8t69meHnPjJ-7">
          <mxGeometry relative="1" as="geometry">
            <Array as="points">
              <mxPoint x="660" y="560" />
              <mxPoint x="660" y="450" />
            </Array>
          </mxGeometry>
        </mxCell>
        <mxCell id="uafcJiYdT8t69meHnPjJ-3" value="" style="rhombus;whiteSpace=wrap;html=1;" vertex="1" parent="1">
          <mxGeometry x="360" y="460" width="200" height="200" as="geometry" />
        </mxCell>
        <mxCell id="uafcJiYdT8t69meHnPjJ-17" style="edgeStyle=orthogonalEdgeStyle;rounded=0;orthogonalLoop=1;jettySize=auto;html=1;entryX=0;entryY=0.5;entryDx=0;entryDy=0;" edge="1" parent="1" source="uafcJiYdT8t69meHnPjJ-4" target="uafcJiYdT8t69meHnPjJ-2">
          <mxGeometry relative="1" as="geometry">
            <Array as="points">
              <mxPoint x="270" y="450" />
              <mxPoint x="270" y="280" />
            </Array>
          </mxGeometry>
        </mxCell>
        <mxCell id="uafcJiYdT8t69meHnPjJ-19" style="edgeStyle=orthogonalEdgeStyle;rounded=0;orthogonalLoop=1;jettySize=auto;html=1;startArrow=classic;startFill=1;" edge="1" parent="1" source="uafcJiYdT8t69meHnPjJ-58" target="uafcJiYdT8t69meHnPjJ-3">
          <mxGeometry relative="1" as="geometry">
            <Array as="points">
              <mxPoint x="270" y="230" />
              <mxPoint x="270" y="560" />
            </Array>
          </mxGeometry>
        </mxCell>
        <mxCell id="uafcJiYdT8t69meHnPjJ-4" value="ADAM" style="shape=umlActor;verticalLabelPosition=bottom;verticalAlign=top;html=1;outlineConnect=0;" vertex="1" parent="1">
          <mxGeometry x="170" y="375" width="75" height="150" as="geometry" />
        </mxCell>
        <mxCell id="uafcJiYdT8t69meHnPjJ-7" value="BOB" style="shape=umlActor;verticalLabelPosition=bottom;verticalAlign=top;html=1;outlineConnect=0;" vertex="1" parent="1">
          <mxGeometry x="680" y="375" width="75" height="150" as="geometry" />
        </mxCell>
        <mxCell id="uafcJiYdT8t69meHnPjJ-28" style="edgeStyle=orthogonalEdgeStyle;rounded=0;orthogonalLoop=1;jettySize=auto;html=1;entryX=1;entryY=0.5;entryDx=0;entryDy=0;" edge="1" parent="1" source="uafcJiYdT8t69meHnPjJ-22" target="uafcJiYdT8t69meHnPjJ-3">
          <mxGeometry relative="1" as="geometry">
            <Array as="points">
              <mxPoint x="520" y="560" />
              <mxPoint x="520" y="560" />
            </Array>
          </mxGeometry>
        </mxCell>
        <mxCell id="uafcJiYdT8t69meHnPjJ-22" value="CENTRAL SEVER OR CENTRAL DAO" style="rounded=0;whiteSpace=wrap;html=1;" vertex="1" parent="1">
          <mxGeometry x="410" y="530" width="100" height="60" as="geometry" />
        </mxCell>
        <mxCell id="uafcJiYdT8t69meHnPjJ-27" style="edgeStyle=orthogonalEdgeStyle;rounded=0;orthogonalLoop=1;jettySize=auto;html=1;endArrow=none;startFill=1;startArrow=classic;" edge="1" parent="1" source="uafcJiYdT8t69meHnPjJ-22">
          <mxGeometry relative="1" as="geometry">
            <mxPoint x="350" y="560" as="targetPoint" />
            <Array as="points">
              <mxPoint x="400" y="560" />
              <mxPoint x="400" y="560" />
            </Array>
          </mxGeometry>
        </mxCell>
        <mxCell id="uafcJiYdT8t69meHnPjJ-49" style="edgeStyle=orthogonalEdgeStyle;rounded=0;orthogonalLoop=1;jettySize=auto;html=1;entryX=1;entryY=0.5;entryDx=0;entryDy=0;exitX=1;exitY=0;exitDx=0;exitDy=37.5;exitPerimeter=0;" edge="1" parent="1" source="uafcJiYdT8t69meHnPjJ-34" target="uafcJiYdT8t69meHnPjJ-2">
          <mxGeometry relative="1" as="geometry">
            <Array as="points">
              <mxPoint x="520" y="223" />
              <mxPoint x="520" y="240" />
              <mxPoint x="570" y="240" />
              <mxPoint x="570" y="280" />
            </Array>
          </mxGeometry>
        </mxCell>
        <mxCell id="uafcJiYdT8t69meHnPjJ-34" value="&lt;font face=&quot;Courier New&quot; style=&quot;font-size: 5px; line-height: 100%;&quot;&gt;vmessage canister&lt;/font&gt;" style="shape=cylinder3;whiteSpace=wrap;html=1;boundedLbl=1;backgroundOutline=1;size=15;" vertex="1" parent="1">
          <mxGeometry x="460" y="180" width="40" height="65" as="geometry" />
        </mxCell>
        <mxCell id="uafcJiYdT8t69meHnPjJ-52" style="edgeStyle=orthogonalEdgeStyle;rounded=0;orthogonalLoop=1;jettySize=auto;html=1;entryX=1;entryY=0.5;entryDx=0;entryDy=0;exitX=1;exitY=0;exitDx=0;exitDy=37.5;exitPerimeter=0;" edge="1" parent="1" source="uafcJiYdT8t69meHnPjJ-35" target="uafcJiYdT8t69meHnPjJ-2">
          <mxGeometry relative="1" as="geometry">
            <Array as="points">
              <mxPoint x="530" y="353" />
              <mxPoint x="530" y="320" />
              <mxPoint x="570" y="320" />
              <mxPoint x="570" y="280" />
            </Array>
          </mxGeometry>
        </mxCell>
        <mxCell id="uafcJiYdT8t69meHnPjJ-35" value="&lt;font face=&quot;Courier New&quot; style=&quot;font-size: 5px;&quot;&gt;vmessage canister&lt;/font&gt;" style="shape=cylinder3;whiteSpace=wrap;html=1;boundedLbl=1;backgroundOutline=1;size=15;" vertex="1" parent="1">
          <mxGeometry x="460" y="315" width="40" height="65" as="geometry" />
        </mxCell>
        <mxCell id="uafcJiYdT8t69meHnPjJ-51" style="edgeStyle=orthogonalEdgeStyle;rounded=0;orthogonalLoop=1;jettySize=auto;html=1;entryX=1;entryY=0.5;entryDx=0;entryDy=0;" edge="1" parent="1" source="uafcJiYdT8t69meHnPjJ-36" target="uafcJiYdT8t69meHnPjJ-2">
          <mxGeometry relative="1" as="geometry">
            <mxPoint x="600" y="280" as="targetPoint" />
            <Array as="points">
              <mxPoint x="570" y="280" />
              <mxPoint x="570" y="280" />
            </Array>
          </mxGeometry>
        </mxCell>
        <mxCell id="uafcJiYdT8t69meHnPjJ-36" value="&lt;font face=&quot;Courier New&quot; style=&quot;font-size: 5px;&quot;&gt;vmessage canister&lt;/font&gt;" style="shape=cylinder3;whiteSpace=wrap;html=1;boundedLbl=1;backgroundOutline=1;size=15;" vertex="1" parent="1">
          <mxGeometry x="520" y="245" width="40" height="70" as="geometry" />
        </mxCell>
        <mxCell id="uafcJiYdT8t69meHnPjJ-45" style="edgeStyle=orthogonalEdgeStyle;rounded=0;orthogonalLoop=1;jettySize=auto;html=1;startArrow=classic;startFill=1;" edge="1" parent="1" source="uafcJiYdT8t69meHnPjJ-37" target="uafcJiYdT8t69meHnPjJ-34">
          <mxGeometry relative="1" as="geometry">
            <Array as="points">
              <mxPoint x="440" y="245" />
              <mxPoint x="440" y="215" />
            </Array>
          </mxGeometry>
        </mxCell>
        <mxCell id="uafcJiYdT8t69meHnPjJ-46" style="edgeStyle=orthogonalEdgeStyle;rounded=0;orthogonalLoop=1;jettySize=auto;html=1;startArrow=classic;startFill=1;" edge="1" parent="1" source="uafcJiYdT8t69meHnPjJ-37" target="uafcJiYdT8t69meHnPjJ-36">
          <mxGeometry relative="1" as="geometry">
            <Array as="points">
              <mxPoint x="475" y="255" />
              <mxPoint x="475" y="270" />
            </Array>
          </mxGeometry>
        </mxCell>
        <mxCell id="uafcJiYdT8t69meHnPjJ-37" value="&lt;font face=&quot;Courier New&quot; style=&quot;font-size: 6px;&quot;&gt;VOYAGER DATABOX&lt;/font&gt;" style="shape=cylinder3;whiteSpace=wrap;html=1;boundedLbl=1;backgroundOutline=1;size=15;" vertex="1" parent="1">
          <mxGeometry x="380" y="210" width="50" height="60" as="geometry" />
        </mxCell>
        <mxCell id="uafcJiYdT8t69meHnPjJ-48" style="edgeStyle=orthogonalEdgeStyle;rounded=0;orthogonalLoop=1;jettySize=auto;html=1;startArrow=classic;startFill=1;" edge="1" parent="1" source="uafcJiYdT8t69meHnPjJ-38" target="uafcJiYdT8t69meHnPjJ-35">
          <mxGeometry relative="1" as="geometry">
            <Array as="points">
              <mxPoint x="440" y="315" />
              <mxPoint x="440" y="345" />
            </Array>
          </mxGeometry>
        </mxCell>
        <mxCell id="uafcJiYdT8t69meHnPjJ-38" value="&lt;font face=&quot;Courier New&quot; style=&quot;font-size: 6px;&quot;&gt;VOYAGER DATABOX&lt;/font&gt;" style="shape=cylinder3;whiteSpace=wrap;html=1;boundedLbl=1;backgroundOutline=1;size=15;" vertex="1" parent="1">
          <mxGeometry x="380" y="290" width="50" height="60" as="geometry" />
        </mxCell>
        <mxCell id="uafcJiYdT8t69meHnPjJ-47" style="edgeStyle=orthogonalEdgeStyle;rounded=0;orthogonalLoop=1;jettySize=auto;html=1;entryX=0;entryY=1;entryDx=0;entryDy=-15;entryPerimeter=0;startArrow=classic;startFill=1;" edge="1" parent="1" source="uafcJiYdT8t69meHnPjJ-38" target="uafcJiYdT8t69meHnPjJ-36">
          <mxGeometry relative="1" as="geometry">
            <Array as="points">
              <mxPoint x="475" y="305" />
              <mxPoint x="475" y="300" />
            </Array>
          </mxGeometry>
        </mxCell>
        <mxCell id="uafcJiYdT8t69meHnPjJ-54" style="edgeStyle=orthogonalEdgeStyle;rounded=0;orthogonalLoop=1;jettySize=auto;html=1;entryX=0;entryY=0.5;entryDx=0;entryDy=0;startArrow=classic;startFill=1;" edge="1" parent="1" source="uafcJiYdT8t69meHnPjJ-38" target="uafcJiYdT8t69meHnPjJ-2">
          <mxGeometry relative="1" as="geometry">
            <Array as="points">
              <mxPoint x="350" y="320" />
              <mxPoint x="350" y="280" />
            </Array>
          </mxGeometry>
        </mxCell>
        <mxCell id="uafcJiYdT8t69meHnPjJ-58" value="Voyager exploration ecosystem e.g. dżdżownica" style="shape=cube;whiteSpace=wrap;html=1;boundedLbl=1;backgroundOutline=1;darkOpacity=0.05;darkOpacity2=0.1;size=15;" vertex="1" parent="1">
          <mxGeometry x="245" y="60" width="132.5" height="80" as="geometry" />
        </mxCell>
        <mxCell id="uafcJiYdT8t69meHnPjJ-59" style="edgeStyle=orthogonalEdgeStyle;rounded=0;orthogonalLoop=1;jettySize=auto;html=1;entryX=0;entryY=0.5;entryDx=0;entryDy=0;entryPerimeter=0;startArrow=classic;startFill=1;endArrow=none;" edge="1" parent="1" source="uafcJiYdT8t69meHnPjJ-58" target="uafcJiYdT8t69meHnPjJ-37">
          <mxGeometry relative="1" as="geometry">
            <Array as="points">
              <mxPoint x="360" y="240" />
            </Array>
          </mxGeometry>
        </mxCell>
      </root>
    </mxGraphModel>
  </diagram>
</mxfile>
